<svg xmlns="http://www.w3.org/2000/svg" version="1.1" xmlns:xlink="http://www.w3.org/1999/xlink" xmlns:svgjs="http://svgjs.com/svgjs" width="1440" height="560" preserveAspectRatio="none" viewBox="0 0 1440 560"><g mask="url(&quot;#SvgjsMask1002&quot;)" fill="none"><path d="M-67.55 372.11L-67.55 372.11" stroke="#132e65" stroke-width="1.5"></path><path d="M-67.55 372.11L77.73 368.66" stroke="#132e65" stroke-width="1.5"></path><path d="M-67.55 372.11L-112.49 559.96" stroke="#132e65" stroke-width="1.5"></path><path d="M-67.55 372.11L87.85 526.72" stroke="#132e65" stroke-width="1.5"></path><path d="M-67.55 372.11L221.6 383.7" stroke="#132e65" stroke-width="1.5"></path><path d="M-67.55 372.11L-84.69 680.69" stroke="#132e65" stroke-width="1.5"></path><path d="M-67.55 372.11L227.73 544.02" stroke="#132e65" stroke-width="1.5"></path><path d="M-112.49 559.96L-112.49 559.96" stroke="#132e65" stroke-width="1.5"></path><path d="M-112.49 559.96L-84.69 680.69" stroke="#132e65" stroke-width="1.5"></path><path d="M-112.49 559.96L87.85 526.72" stroke="#132e65" stroke-width="1.5"></path><path d="M-112.49 559.96L38.53 699.63" stroke="#132e65" stroke-width="1.5"></path><path d="M-112.49 559.96L77.73 368.66" stroke="#132e65" stroke-width="1.5"></path><path d="M-84.69 680.69L-84.69 680.69" stroke="#132e65" stroke-width="1.5"></path><path d="M-84.69 680.69L38.53 699.63" stroke="#132e65" stroke-width="1.5"></path><path d="M-84.69 680.69L87.85 526.72" stroke="#132e65" stroke-width="1.5"></path><path d="M-84.69 680.69L223.18 662.71" stroke="#132e65" stroke-width="1.5"></path><path d="M77.73 368.66L77.73 368.66" stroke="#132e65" stroke-width="1.5"></path><path d="M77.73 368.66L221.6 383.7" stroke="#132e65" stroke-width="1.5"></path><path d="M77.73 368.66L87.85 526.72" stroke="#132e65" stroke-width="1.5"></path><path d="M77.73 368.66L227.73 544.02" stroke="#132e65" stroke-width="1.5"></path><path d="M87.85 526.72L87.85 526.72" stroke="#132e65" stroke-width="1.5"></path><path d="M87.85 526.72L227.73 544.02" stroke="#132e65" stroke-width="1.5"></path><path d="M87.85 526.72L38.53 699.63" stroke="#132e65" stroke-width="1.5"></path><path d="M87.85 526.72L223.18 662.71" stroke="#132e65" stroke-width="1.5"></path><path d="M87.85 526.72L221.6 383.7" stroke="#132e65" stroke-width="1.5"></path><path d="M38.53 699.63L38.53 699.63" stroke="#132e65" stroke-width="1.5"></path><path d="M221.6 383.7L221.6 383.7" stroke="#132e65" stroke-width="1.5"></path><path d="M221.6 383.7L352.56 411.7" stroke="#132e65" stroke-width="1.5"></path><path d="M221.6 383.7L227.73 544.02" stroke="#132e65" stroke-width="1.5"></path><path d="M227.73 544.02L227.73 544.02" stroke="#132e65" stroke-width="1.5"></path><path d="M227.73 544.02L223.18 662.71" stroke="#132e65" stroke-width="1.5"></path><path d="M227.73 544.02L355.06 556.42" stroke="#132e65" stroke-width="1.5"></path><path d="M227.73 544.02L338.1 640.1" stroke="#132e65" stroke-width="1.5"></path><path d="M223.18 662.71L223.18 662.71" stroke="#132e65" stroke-width="1.5"></path><path d="M223.18 662.71L338.1 640.1" stroke="#132e65" stroke-width="1.5"></path><path d="M223.18 662.71L355.06 556.42" stroke="#132e65" stroke-width="1.5"></path><path d="M223.18 662.71L38.53 699.63" stroke="#132e65" stroke-width="1.5"></path><path d="M223.18 662.71L221.6 383.7" stroke="#132e65" stroke-width="1.5"></path><path d="M352.56 411.7L352.56 411.7" stroke="#132e65" stroke-width="1.5"></path><path d="M352.56 411.7L490.91 384.08" stroke="#132e65" stroke-width="1.5"></path><path d="M352.56 411.7L355.06 556.42" stroke="#132e65" stroke-width="1.5"></path><path d="M352.56 411.7L227.73 544.02" stroke="#132e65" stroke-width="1.5"></path><path d="M355.06 556.42L355.06 556.42" stroke="#132e65" stroke-width="1.5"></path><path d="M355.06 556.42L338.1 640.1" stroke="#132e65" stroke-width="1.5"></path><path d="M338.1 640.1L338.1 640.1" stroke="#132e65" stroke-width="1.5"></path><path d="M490.91 384.08L490.91 384.08" stroke="#132e65" stroke-width="1.5"></path><path d="M490.91 384.08L638.01 361.69" stroke="#132e65" stroke-width="1.5"></path><path d="M490.91 384.08L506.6 537.53" stroke="#132e65" stroke-width="1.5"></path><path d="M490.91 384.08L637.83 501.15" stroke="#132e65" stroke-width="1.5"></path><path d="M490.91 384.08L355.06 556.42" stroke="#132e65" stroke-width="1.5"></path><path d="M490.91 384.08L700.56 247.34" stroke="#132e65" stroke-width="1.5"></path><path d="M506.6 537.53L506.6 537.53" stroke="#132e65" stroke-width="1.5"></path><path d="M506.6 537.53L637.83 501.15" stroke="#132e65" stroke-width="1.5"></path><path d="M506.6 537.53L355.06 556.42" stroke="#132e65" stroke-width="1.5"></path><path d="M506.6 537.53L547.03 706.67" stroke="#132e65" stroke-width="1.5"></path><path d="M547.03 706.67L547.03 706.67" stroke="#132e65" stroke-width="1.5"></path><path d="M547.03 706.67L652.13 653.43" stroke="#132e65" stroke-width="1.5"></path><path d="M547.03 706.67L338.1 640.1" stroke="#132e65" stroke-width="1.5"></path><path d="M547.03 706.67L637.83 501.15" stroke="#132e65" stroke-width="1.5"></path><path d="M547.03 706.67L355.06 556.42" stroke="#132e65" stroke-width="1.5"></path><path d="M700.56 247.34L700.56 247.34" stroke="#132e65" stroke-width="1.5"></path><path d="M700.56 247.34L638.01 361.69" stroke="#132e65" stroke-width="1.5"></path><path d="M700.56 247.34L847.02 74.44" stroke="#132e65" stroke-width="1.5"></path><path d="M700.56 247.34L637.83 501.15" stroke="#132e65" stroke-width="1.5"></path><path d="M700.56 247.34L969.35 216.91" stroke="#132e65" stroke-width="1.5"></path><path d="M700.56 247.34L976.99 395.25" stroke="#132e65" stroke-width="1.5"></path><path d="M638.01 361.69L638.01 361.69" stroke="#132e65" stroke-width="1.5"></path><path d="M638.01 361.69L637.83 501.15" stroke="#132e65" stroke-width="1.5"></path><path d="M637.83 501.15L637.83 501.15" stroke="#132e65" stroke-width="1.5"></path><path d="M652.13 653.43L652.13 653.43" stroke="#132e65" stroke-width="1.5"></path><path d="M652.13 653.43L637.83 501.15" stroke="#132e65" stroke-width="1.5"></path><path d="M652.13 653.43L806.13 690.93" stroke="#132e65" stroke-width="1.5"></path><path d="M652.13 653.43L506.6 537.53" stroke="#132e65" stroke-width="1.5"></path><path d="M847.02 74.44L847.02 74.44" stroke="#132e65" stroke-width="1.5"></path><path d="M847.02 74.44L972.12 63.6" stroke="#132e65" stroke-width="1.5"></path><path d="M847.02 74.44L953.63 -62.02" stroke="#132e65" stroke-width="1.5"></path><path d="M847.02 74.44L969.35 216.91" stroke="#132e65" stroke-width="1.5"></path><path d="M847.02 74.44L1154.18 -39.87" stroke="#132e65" stroke-width="1.5"></path><path d="M847.02 74.44L976.99 395.25" stroke="#132e65" stroke-width="1.5"></path><path d="M849.75 552.57L849.75 552.57" stroke="#132e65" stroke-width="1.5"></path><path d="M849.75 552.57L970.39 513.6" stroke="#132e65" stroke-width="1.5"></path><path d="M849.75 552.57L806.13 690.93" stroke="#132e65" stroke-width="1.5"></path><path d="M849.75 552.57L942.46 684.25" stroke="#132e65" stroke-width="1.5"></path><path d="M806.13 690.93L806.13 690.93" stroke="#132e65" stroke-width="1.5"></path><path d="M806.13 690.93L942.46 684.25" stroke="#132e65" stroke-width="1.5"></path><path d="M953.63 -62.02L953.63 -62.02" stroke="#132e65" stroke-width="1.5"></path><path d="M953.63 -62.02L972.12 63.6" stroke="#132e65" stroke-width="1.5"></path><path d="M953.63 -62.02L1154.18 -39.87" stroke="#132e65" stroke-width="1.5"></path><path d="M953.63 -62.02L969.35 216.91" stroke="#132e65" stroke-width="1.5"></path><path d="M953.63 -62.02L1293.36 -38.04" stroke="#132e65" stroke-width="1.5"></path><path d="M972.12 63.6L972.12 63.6" stroke="#132e65" stroke-width="1.5"></path><path d="M972.12 63.6L969.35 216.91" stroke="#132e65" stroke-width="1.5"></path><path d="M969.35 216.91L969.35 216.91" stroke="#132e65" stroke-width="1.5"></path><path d="M969.35 216.91L976.99 395.25" stroke="#132e65" stroke-width="1.5"></path><path d="M969.35 216.91L1140.06 374.62" stroke="#132e65" stroke-width="1.5"></path><path d="M976.99 395.25L976.99 395.25" stroke="#132e65" stroke-width="1.5"></path><path d="M976.99 395.25L970.39 513.6" stroke="#132e65" stroke-width="1.5"></path><path d="M976.99 395.25L1140.06 374.62" stroke="#132e65" stroke-width="1.5"></path><path d="M976.99 395.25L1123.51 524.08" stroke="#132e65" stroke-width="1.5"></path><path d="M970.39 513.6L970.39 513.6" stroke="#132e65" stroke-width="1.5"></path><path d="M970.39 513.6L1123.51 524.08" stroke="#132e65" stroke-width="1.5"></path><path d="M970.39 513.6L942.46 684.25" stroke="#132e65" stroke-width="1.5"></path><path d="M970.39 513.6L1140.06 374.62" stroke="#132e65" stroke-width="1.5"></path><path d="M942.46 684.25L942.46 684.25" stroke="#132e65" stroke-width="1.5"></path><path d="M1154.18 -39.87L1154.18 -39.87" stroke="#132e65" stroke-width="1.5"></path><path d="M1154.18 -39.87L1293.36 -38.04" stroke="#132e65" stroke-width="1.5"></path><path d="M1154.18 -39.87L1282.75 55.74" stroke="#132e65" stroke-width="1.5"></path><path d="M1140.06 374.62L1140.06 374.62" stroke="#132e65" stroke-width="1.5"></path><path d="M1140.06 374.62L1271.3 349.96" stroke="#132e65" stroke-width="1.5"></path><path d="M1140.06 374.62L1123.51 524.08" stroke="#132e65" stroke-width="1.5"></path><path d="M1123.51 524.08L1123.51 524.08" stroke="#132e65" stroke-width="1.5"></path><path d="M1123.51 524.08L1293.5 559.74" stroke="#132e65" stroke-width="1.5"></path><path d="M1124.17 704.93L1124.17 704.93" stroke="#132e65" stroke-width="1.5"></path><path d="M1124.17 704.93L1295.08 650.59" stroke="#132e65" stroke-width="1.5"></path><path d="M1124.17 704.93L1123.51 524.08" stroke="#132e65" stroke-width="1.5"></path><path d="M1124.17 704.93L942.46 684.25" stroke="#132e65" stroke-width="1.5"></path><path d="M1124.17 704.93L1293.5 559.74" stroke="#132e65" stroke-width="1.5"></path><path d="M1124.17 704.93L970.39 513.6" stroke="#132e65" stroke-width="1.5"></path><path d="M1124.17 704.93L1428.01 681.65" stroke="#132e65" stroke-width="1.5"></path><path d="M1293.36 -38.04L1293.36 -38.04" stroke="#132e65" stroke-width="1.5"></path><path d="M1293.36 -38.04L1282.75 55.74" stroke="#132e65" stroke-width="1.5"></path><path d="M1293.36 -38.04L1446.68 -93.45" stroke="#132e65" stroke-width="1.5"></path><path d="M1282.75 55.74L1282.75 55.74" stroke="#132e65" stroke-width="1.5"></path><path d="M1282.75 55.74L1426.59 73.56" stroke="#132e65" stroke-width="1.5"></path><path d="M1282.75 55.74L1304.16 216.09" stroke="#132e65" stroke-width="1.5"></path><path d="M1304.16 216.09L1304.16 216.09" stroke="#132e65" stroke-width="1.5"></path><path d="M1304.16 216.09L1437.04 229.02" stroke="#132e65" stroke-width="1.5"></path><path d="M1304.16 216.09L1271.3 349.96" stroke="#132e65" stroke-width="1.5"></path><path d="M1304.16 216.09L1387.94 357.73" stroke="#132e65" stroke-width="1.5"></path><path d="M1271.3 349.96L1271.3 349.96" stroke="#132e65" stroke-width="1.5"></path><path d="M1271.3 349.96L1387.94 357.73" stroke="#132e65" stroke-width="1.5"></path><path d="M1293.5 559.74L1293.5 559.74" stroke="#132e65" stroke-width="1.5"></path><path d="M1293.5 559.74L1295.08 650.59" stroke="#132e65" stroke-width="1.5"></path><path d="M1293.5 559.74L1443.75 557.41" stroke="#132e65" stroke-width="1.5"></path><path d="M1295.08 650.59L1295.08 650.59" stroke="#132e65" stroke-width="1.5"></path><path d="M1295.08 650.59L1428.01 681.65" stroke="#132e65" stroke-width="1.5"></path><path d="M1446.68 -93.45L1446.68 -93.45" stroke="#132e65" stroke-width="1.5"></path><path d="M1446.68 -93.45L1559.41 -39.22" stroke="#132e65" stroke-width="1.5"></path><path d="M1446.68 -93.45L1426.59 73.56" stroke="#132e65" stroke-width="1.5"></path><path d="M1446.68 -93.45L1282.75 55.74" stroke="#132e65" stroke-width="1.5"></path><path d="M1446.68 -93.45L1610.46 84.94" stroke="#132e65" stroke-width="1.5"></path><path d="M1426.59 73.56L1426.59 73.56" stroke="#132e65" stroke-width="1.5"></path><path d="M1426.59 73.56L1437.04 229.02" stroke="#132e65" stroke-width="1.5"></path><path d="M1437.04 229.02L1437.04 229.02" stroke="#132e65" stroke-width="1.5"></path><path d="M1437.04 229.02L1387.94 357.73" stroke="#132e65" stroke-width="1.5"></path><path d="M1437.04 229.02L1608.16 234.19" stroke="#132e65" stroke-width="1.5"></path><path d="M1387.94 357.73L1387.94 357.73" stroke="#132e65" stroke-width="1.5"></path><path d="M1443.75 557.41L1443.75 557.41" stroke="#132e65" stroke-width="1.5"></path><path d="M1443.75 557.41L1428.01 681.65" stroke="#132e65" stroke-width="1.5"></path><path d="M1443.75 557.41L1589.74 502.49" stroke="#132e65" stroke-width="1.5"></path><path d="M1428.01 681.65L1428.01 681.65" stroke="#132e65" stroke-width="1.5"></path><path d="M1428.01 681.65L1596.14 671.5" stroke="#132e65" stroke-width="1.5"></path><path d="M1428.01 681.65L1293.5 559.74" stroke="#132e65" stroke-width="1.5"></path><path d="M1428.01 681.65L1589.74 502.49" stroke="#132e65" stroke-width="1.5"></path><path d="M1559.41 -39.22L1559.41 -39.22" stroke="#132e65" stroke-width="1.5"></path><path d="M1559.41 -39.22L1610.46 84.94" stroke="#132e65" stroke-width="1.5"></path><path d="M1559.41 -39.22L1426.59 73.56" stroke="#132e65" stroke-width="1.5"></path><path d="M1610.46 84.94L1610.46 84.94" stroke="#132e65" stroke-width="1.5"></path><path d="M1610.46 84.94L1608.16 234.19" stroke="#132e65" stroke-width="1.5"></path><path d="M1610.46 84.94L1426.59 73.56" stroke="#132e65" stroke-width="1.5"></path><path d="M1610.46 84.94L1437.04 229.02" stroke="#132e65" stroke-width="1.5"></path><path d="M1610.46 84.94L1600.86 386.12" stroke="#132e65" stroke-width="1.5"></path><path d="M1608.16 234.19L1608.16 234.19" stroke="#132e65" stroke-width="1.5"></path><path d="M1608.16 234.19L1600.86 386.12" stroke="#132e65" stroke-width="1.5"></path><path d="M1608.16 234.19L1426.59 73.56" stroke="#132e65" stroke-width="1.5"></path><path d="M1600.86 386.12L1600.86 386.12" stroke="#132e65" stroke-width="1.5"></path><path d="M1600.86 386.12L1589.74 502.49" stroke="#132e65" stroke-width="1.5"></path><path d="M1600.86 386.12L1387.94 357.73" stroke="#132e65" stroke-width="1.5"></path><path d="M1589.74 502.49L1589.74 502.49" stroke="#132e65" stroke-width="1.5"></path><path d="M1596.14 671.5L1596.14 671.5" stroke="#132e65" stroke-width="1.5"></path><path d="M1596.14 671.5L1589.74 502.49" stroke="#132e65" stroke-width="1.5"></path><path d="M1596.14 671.5L1443.75 557.41" stroke="#132e65" stroke-width="1.5"></path><path d="M1596.14 671.5L1600.86 386.12" stroke="#132e65" stroke-width="1.5"></path><path d="M1596.14 671.5L1295.08 650.59" stroke="#132e65" stroke-width="1.5"></path><path d="M1596.14 671.5L1293.5 559.74" stroke="#132e65" stroke-width="1.5"></path><circle r="5" cx="-67.55" cy="372.11" fill="#132e65"></circle><circle r="5" cx="-112.49" cy="559.96" fill="#132e65"></circle><circle r="5" cx="-84.69" cy="680.69" fill="#132e65"></circle><circle r="5" cx="77.73" cy="368.66" fill="#132e65"></circle><circle r="5" cx="87.85" cy="526.72" fill="#132e65"></circle><circle r="5" cx="38.53" cy="699.63" fill="#132e65"></circle><circle r="5" cx="221.6" cy="383.7" fill="#132e65"></circle><circle r="5" cx="227.73" cy="544.02" fill="#132e65"></circle><circle r="5" cx="223.18" cy="662.71" fill="#132e65"></circle><circle r="5" cx="352.56" cy="411.7" fill="#132e65"></circle><circle r="5" cx="355.06" cy="556.42" fill="#132e65"></circle><circle r="5" cx="338.1" cy="640.1" fill="#132e65"></circle><circle r="5" cx="490.91" cy="384.08" fill="#132e65"></circle><circle r="5" cx="506.6" cy="537.53" fill="#132e65"></circle><circle r="5" cx="547.03" cy="706.67" fill="#132e65"></circle><circle r="5" cx="700.56" cy="247.34" fill="#132e65"></circle><circle r="5" cx="638.01" cy="361.69" fill="#132e65"></circle><circle r="5" cx="637.83" cy="501.15" fill="#132e65"></circle><circle r="5" cx="652.13" cy="653.43" fill="#132e65"></circle><circle r="5" cx="847.02" cy="74.44" fill="#132e65"></circle><circle r="5" cx="849.75" cy="552.57" fill="#132e65"></circle><circle r="5" cx="806.13" cy="690.93" fill="#132e65"></circle><circle r="5" cx="953.63" cy="-62.02" fill="#132e65"></circle><circle r="5" cx="972.12" cy="63.6" fill="#132e65"></circle><circle r="5" cx="969.35" cy="216.91" fill="#132e65"></circle><circle r="5" cx="976.99" cy="395.25" fill="#132e65"></circle><circle r="5" cx="970.39" cy="513.6" fill="#132e65"></circle><circle r="5" cx="942.46" cy="684.25" fill="#132e65"></circle><circle r="5" cx="1154.18" cy="-39.87" fill="#132e65"></circle><circle r="5" cx="1140.06" cy="374.62" fill="#132e65"></circle><circle r="5" cx="1123.51" cy="524.08" fill="#132e65"></circle><circle r="5" cx="1124.17" cy="704.93" fill="#132e65"></circle><circle r="5" cx="1293.36" cy="-38.04" fill="#132e65"></circle><circle r="5" cx="1282.75" cy="55.74" fill="#132e65"></circle><circle r="5" cx="1304.16" cy="216.09" fill="#132e65"></circle><circle r="5" cx="1271.3" cy="349.96" fill="#132e65"></circle><circle r="5" cx="1293.5" cy="559.74" fill="#132e65"></circle><circle r="5" cx="1295.08" cy="650.59" fill="#132e65"></circle><circle r="5" cx="1446.68" cy="-93.45" fill="#132e65"></circle><circle r="5" cx="1426.59" cy="73.56" fill="#132e65"></circle><circle r="5" cx="1437.04" cy="229.02" fill="#132e65"></circle><circle r="5" cx="1387.94" cy="357.73" fill="#132e65"></circle><circle r="5" cx="1443.75" cy="557.41" fill="#132e65"></circle><circle r="5" cx="1428.01" cy="681.65" fill="#132e65"></circle><circle r="5" cx="1559.41" cy="-39.22" fill="#132e65"></circle><circle r="5" cx="1610.46" cy="84.94" fill="#132e65"></circle><circle r="5" cx="1608.16" cy="234.19" fill="#132e65"></circle><circle r="5" cx="1600.86" cy="386.12" fill="#132e65"></circle><circle r="5" cx="1589.74" cy="502.49" fill="#132e65"></circle><circle r="5" cx="1596.14" cy="671.5" fill="#132e65"></circle><path d="M-107.05 518.22L-107.05 518.22" stroke="hsl(228.5, 77.2%, 51.5%)" stroke-width="1.5"></path><path d="M-107.05 518.22L57.5 532.35" stroke="hsl(228.5, 77.2%, 51.5%)" stroke-width="1.5"></path><path d="M-107.05 518.22L-67.62 707.84" stroke="hsl(228.5, 77.2%, 51.5%)" stroke-width="1.5"></path><path d="M-107.05 518.22L87.74 711.91" stroke="hsl(228.5, 77.2%, 51.5%)" stroke-width="1.5"></path><path d="M-107.05 518.22L233.15 694.72" stroke="hsl(228.5, 77.2%, 51.5%)" stroke-width="1.5"></path><path d="M347.66 509.84L347.66 509.84" stroke="hsl(228.5, 77.2%, 51.5%)" stroke-width="1.5"></path><path d="M347.66 509.84L381.09 676.5" stroke="hsl(228.5, 77.2%, 51.5%)" stroke-width="1.5"></path><path d="M347.66 509.84L525.96 495.32" stroke="hsl(228.5, 77.2%, 51.5%)" stroke-width="1.5"></path><path d="M347.66 509.84L233.15 694.72" stroke="hsl(228.5, 77.2%, 51.5%)" stroke-width="1.5"></path><path d="M937.94 344.21L937.94 344.21" stroke="hsl(228.5, 77.2%, 51.5%)" stroke-width="1.5"></path><path d="M937.94 344.21L838.29 348.64" stroke="hsl(228.5, 77.2%, 51.5%)" stroke-width="1.5"></path><path d="M937.94 344.21L1123.45 257.57" stroke="hsl(228.5, 77.2%, 51.5%)" stroke-width="1.5"></path><path d="M937.94 344.21L1000.84 544.83" stroke="hsl(228.5, 77.2%, 51.5%)" stroke-width="1.5"></path><path d="M1000.84 544.83L1000.84 544.83" stroke="hsl(228.5, 77.2%, 51.5%)" stroke-width="1.5"></path><path d="M1000.84 544.83L997.07 662.72" stroke="hsl(228.5, 77.2%, 51.5%)" stroke-width="1.5"></path><path d="M1000.84 544.83L1123.55 530.83" stroke="hsl(228.5, 77.2%, 51.5%)" stroke-width="1.5"></path><path d="M1000.84 544.83L1131.24 655.01" stroke="hsl(228.5, 77.2%, 51.5%)" stroke-width="1.5"></path><path d="M1000.84 544.83L796.81 506.63" stroke="hsl(228.5, 77.2%, 51.5%)" stroke-width="1.5"></path><path d="M997.07 662.72L997.07 662.72" stroke="hsl(228.5, 77.2%, 51.5%)" stroke-width="1.5"></path><path d="M997.07 662.72L1131.24 655.01" stroke="hsl(228.5, 77.2%, 51.5%)" stroke-width="1.5"></path><path d="M997.07 662.72L857.94 699.8" stroke="hsl(228.5, 77.2%, 51.5%)" stroke-width="1.5"></path><path d="M997.07 662.72L1123.55 530.83" stroke="hsl(228.5, 77.2%, 51.5%)" stroke-width="1.5"></path><path d="M1123.45 257.57L1123.45 257.57" stroke="hsl(228.5, 77.2%, 51.5%)" stroke-width="1.5"></path><path d="M1123.45 257.57L1160.57 371.77" stroke="hsl(228.5, 77.2%, 51.5%)" stroke-width="1.5"></path><path d="M1123.45 257.57L1269.84 255.79" stroke="hsl(228.5, 77.2%, 51.5%)" stroke-width="1.5"></path><path d="M1160.57 371.77L1160.57 371.77" stroke="hsl(228.5, 77.2%, 51.5%)" stroke-width="1.5"></path><path d="M1160.57 371.77L1299.56 405.54" stroke="hsl(228.5, 77.2%, 51.5%)" stroke-width="1.5"></path><path d="M1160.57 371.77L1269.84 255.79" stroke="hsl(228.5, 77.2%, 51.5%)" stroke-width="1.5"></path><path d="M1160.57 371.77L1123.55 530.83" stroke="hsl(228.5, 77.2%, 51.5%)" stroke-width="1.5"></path><path d="M1131.24 655.01L1131.24 655.01" stroke="hsl(228.5, 77.2%, 51.5%)" stroke-width="1.5"></path><path d="M1131.24 655.01L1123.55 530.83" stroke="hsl(228.5, 77.2%, 51.5%)" stroke-width="1.5"></path><path d="M1300.92 518.48L1300.92 518.48" stroke="hsl(228.5, 77.2%, 51.5%)" stroke-width="1.5"></path><path d="M1300.92 518.48L1390.07 530.77" stroke="hsl(228.5, 77.2%, 51.5%)" stroke-width="1.5"></path><path d="M1300.92 518.48L1299.56 405.54" stroke="hsl(228.5, 77.2%, 51.5%)" stroke-width="1.5"></path><path d="M1300.92 518.48L1289.64 651.99" stroke="hsl(228.5, 77.2%, 51.5%)" stroke-width="1.5"></path><path d="M1300.92 518.48L1123.55 530.83" stroke="hsl(228.5, 77.2%, 51.5%)" stroke-width="1.5"></path><path d="M1300.92 518.48L1160.57 371.77" stroke="hsl(228.5, 77.2%, 51.5%)" stroke-width="1.5"></path><path d="M1300.92 518.48L1131.24 655.01" stroke="hsl(228.5, 77.2%, 51.5%)" stroke-width="1.5"></path><path d="M1458.44 -68.09L1458.44 -68.09" stroke="hsl(228.5, 77.2%, 51.5%)" stroke-width="1.5"></path><path d="M1458.44 -68.09L1571.25 -90.32" stroke="hsl(228.5, 77.2%, 51.5%)" stroke-width="1.5"></path><path d="M1458.44 -68.09L1404.14 99.45" stroke="hsl(228.5, 77.2%, 51.5%)" stroke-width="1.5"></path><path d="M1458.44 -68.09L1308.31 53.08" stroke="hsl(228.5, 77.2%, 51.5%)" stroke-width="1.5"></path><path d="M1458.44 -68.09L1570.29 108.91" stroke="hsl(228.5, 77.2%, 51.5%)" stroke-width="1.5"></path><path d="M1458.44 -68.09L1244.76 -51.86" stroke="hsl(228.5, 77.2%, 51.5%)" stroke-width="1.5"></path><path d="M1428.12 709.16L1428.12 709.16" stroke="hsl(228.5, 77.2%, 51.5%)" stroke-width="1.5"></path><path d="M1428.12 709.16L1289.64 651.99" stroke="hsl(228.5, 77.2%, 51.5%)" stroke-width="1.5"></path><path d="M1428.12 709.16L1390.07 530.77" stroke="hsl(228.5, 77.2%, 51.5%)" stroke-width="1.5"></path><path d="M-67.62 707.84L-67.62 707.84" stroke="hsl(228.5, 77.2%, 51.5%)" stroke-width="1.5"></path><path d="M-67.62 707.84L87.74 711.91" stroke="hsl(228.5, 77.2%, 51.5%)" stroke-width="1.5"></path><path d="M-67.62 707.84L57.5 532.35" stroke="hsl(228.5, 77.2%, 51.5%)" stroke-width="1.5"></path><path d="M-67.62 707.84L233.15 694.72" stroke="hsl(228.5, 77.2%, 51.5%)" stroke-width="1.5"></path><path d="M57.5 532.35L57.5 532.35" stroke="hsl(228.5, 77.2%, 51.5%)" stroke-width="1.5"></path><path d="M87.74 711.91L87.74 711.91" stroke="hsl(228.5, 77.2%, 51.5%)" stroke-width="1.5"></path><path d="M87.74 711.91L233.15 694.72" stroke="hsl(228.5, 77.2%, 51.5%)" stroke-width="1.5"></path><path d="M87.74 711.91L57.5 532.35" stroke="hsl(228.5, 77.2%, 51.5%)" stroke-width="1.5"></path><path d="M233.15 694.72L233.15 694.72" stroke="hsl(228.5, 77.2%, 51.5%)" stroke-width="1.5"></path><path d="M233.15 694.72L381.09 676.5" stroke="hsl(228.5, 77.2%, 51.5%)" stroke-width="1.5"></path><path d="M233.15 694.72L57.5 532.35" stroke="hsl(228.5, 77.2%, 51.5%)" stroke-width="1.5"></path><path d="M233.15 694.72L554.07 646.58" stroke="hsl(228.5, 77.2%, 51.5%)" stroke-width="1.5"></path><path d="M381.09 676.5L381.09 676.5" stroke="hsl(228.5, 77.2%, 51.5%)" stroke-width="1.5"></path><path d="M381.09 676.5L554.07 646.58" stroke="hsl(228.5, 77.2%, 51.5%)" stroke-width="1.5"></path><path d="M381.09 676.5L525.96 495.32" stroke="hsl(228.5, 77.2%, 51.5%)" stroke-width="1.5"></path><path d="M381.09 676.5L87.74 711.91" stroke="hsl(228.5, 77.2%, 51.5%)" stroke-width="1.5"></path><path d="M381.09 676.5L675.04 558.71" stroke="hsl(228.5, 77.2%, 51.5%)" stroke-width="1.5"></path><path d="M525.96 495.32L525.96 495.32" stroke="hsl(228.5, 77.2%, 51.5%)" stroke-width="1.5"></path><path d="M525.96 495.32L554.07 646.58" stroke="hsl(228.5, 77.2%, 51.5%)" stroke-width="1.5"></path><path d="M525.96 495.32L675.04 558.71" stroke="hsl(228.5, 77.2%, 51.5%)" stroke-width="1.5"></path><path d="M525.96 495.32L659.92 391.32" stroke="hsl(228.5, 77.2%, 51.5%)" stroke-width="1.5"></path><path d="M554.07 646.58L554.07 646.58" stroke="hsl(228.5, 77.2%, 51.5%)" stroke-width="1.5"></path><path d="M554.07 646.58L675.04 558.71" stroke="hsl(228.5, 77.2%, 51.5%)" stroke-width="1.5"></path><path d="M659.92 391.32L659.92 391.32" stroke="hsl(228.5, 77.2%, 51.5%)" stroke-width="1.5"></path><path d="M659.92 391.32L675.04 558.71" stroke="hsl(228.5, 77.2%, 51.5%)" stroke-width="1.5"></path><path d="M659.92 391.32L796.81 506.63" stroke="hsl(228.5, 77.2%, 51.5%)" stroke-width="1.5"></path><path d="M659.92 391.32L838.29 348.64" stroke="hsl(228.5, 77.2%, 51.5%)" stroke-width="1.5"></path><path d="M675.04 558.71L675.04 558.71" stroke="hsl(228.5, 77.2%, 51.5%)" stroke-width="1.5"></path><path d="M675.04 558.71L796.81 506.63" stroke="hsl(228.5, 77.2%, 51.5%)" stroke-width="1.5"></path><path d="M675.04 558.71L857.94 699.8" stroke="hsl(228.5, 77.2%, 51.5%)" stroke-width="1.5"></path><path d="M675.04 558.71L838.29 348.64" stroke="hsl(228.5, 77.2%, 51.5%)" stroke-width="1.5"></path><path d="M838.29 348.64L838.29 348.64" stroke="hsl(228.5, 77.2%, 51.5%)" stroke-width="1.5"></path><path d="M838.29 348.64L796.81 506.63" stroke="hsl(228.5, 77.2%, 51.5%)" stroke-width="1.5"></path><path d="M838.29 348.64L1000.84 544.83" stroke="hsl(228.5, 77.2%, 51.5%)" stroke-width="1.5"></path><path d="M838.29 348.64L1123.45 257.57" stroke="hsl(228.5, 77.2%, 51.5%)" stroke-width="1.5"></path><path d="M796.81 506.63L796.81 506.63" stroke="hsl(228.5, 77.2%, 51.5%)" stroke-width="1.5"></path><path d="M796.81 506.63L857.94 699.8" stroke="hsl(228.5, 77.2%, 51.5%)" stroke-width="1.5"></path><path d="M857.94 699.8L857.94 699.8" stroke="hsl(228.5, 77.2%, 51.5%)" stroke-width="1.5"></path><path d="M857.94 699.8L1000.84 544.83" stroke="hsl(228.5, 77.2%, 51.5%)" stroke-width="1.5"></path><path d="M1123.55 530.83L1123.55 530.83" stroke="hsl(228.5, 77.2%, 51.5%)" stroke-width="1.5"></path><path d="M1244.76 -51.86L1244.76 -51.86" stroke="hsl(228.5, 77.2%, 51.5%)" stroke-width="1.5"></path><path d="M1244.76 -51.86L1308.31 53.08" stroke="hsl(228.5, 77.2%, 51.5%)" stroke-width="1.5"></path><path d="M1244.76 -51.86L1404.14 99.45" stroke="hsl(228.5, 77.2%, 51.5%)" stroke-width="1.5"></path><path d="M1244.76 -51.86L1269.84 255.79" stroke="hsl(228.5, 77.2%, 51.5%)" stroke-width="1.5"></path><path d="M1244.76 -51.86L1571.25 -90.32" stroke="hsl(228.5, 77.2%, 51.5%)" stroke-width="1.5"></path><path d="M1244.76 -51.86L1123.45 257.57" stroke="hsl(228.5, 77.2%, 51.5%)" stroke-width="1.5"></path><path d="M1308.31 53.08L1308.31 53.08" stroke="hsl(228.5, 77.2%, 51.5%)" stroke-width="1.5"></path><path d="M1308.31 53.08L1404.14 99.45" stroke="hsl(228.5, 77.2%, 51.5%)" stroke-width="1.5"></path><path d="M1308.31 53.08L1269.84 255.79" stroke="hsl(228.5, 77.2%, 51.5%)" stroke-width="1.5"></path><path d="M1269.84 255.79L1269.84 255.79" stroke="hsl(228.5, 77.2%, 51.5%)" stroke-width="1.5"></path><path d="M1269.84 255.79L1299.56 405.54" stroke="hsl(228.5, 77.2%, 51.5%)" stroke-width="1.5"></path><path d="M1269.84 255.79L1450.6 213.87" stroke="hsl(228.5, 77.2%, 51.5%)" stroke-width="1.5"></path><path d="M1299.56 405.54L1299.56 405.54" stroke="hsl(228.5, 77.2%, 51.5%)" stroke-width="1.5"></path><path d="M1289.64 651.99L1289.64 651.99" stroke="hsl(228.5, 77.2%, 51.5%)" stroke-width="1.5"></path><path d="M1289.64 651.99L1390.07 530.77" stroke="hsl(228.5, 77.2%, 51.5%)" stroke-width="1.5"></path><path d="M1289.64 651.99L1131.24 655.01" stroke="hsl(228.5, 77.2%, 51.5%)" stroke-width="1.5"></path><path d="M1404.14 99.45L1404.14 99.45" stroke="hsl(228.5, 77.2%, 51.5%)" stroke-width="1.5"></path><path d="M1404.14 99.45L1450.6 213.87" stroke="hsl(228.5, 77.2%, 51.5%)" stroke-width="1.5"></path><path d="M1404.14 99.45L1570.29 108.91" stroke="hsl(228.5, 77.2%, 51.5%)" stroke-width="1.5"></path><path d="M1404.14 99.45L1269.84 255.79" stroke="hsl(228.5, 77.2%, 51.5%)" stroke-width="1.5"></path><path d="M1450.6 213.87L1450.6 213.87" stroke="hsl(228.5, 77.2%, 51.5%)" stroke-width="1.5"></path><path d="M1450.6 213.87L1452.94 348.65" stroke="hsl(228.5, 77.2%, 51.5%)" stroke-width="1.5"></path><path d="M1450.6 213.87L1607.98 201.52" stroke="hsl(228.5, 77.2%, 51.5%)" stroke-width="1.5"></path><path d="M1450.6 213.87L1570.29 108.91" stroke="hsl(228.5, 77.2%, 51.5%)" stroke-width="1.5"></path><path d="M1450.6 213.87L1566.1 350.64" stroke="hsl(228.5, 77.2%, 51.5%)" stroke-width="1.5"></path><path d="M1452.94 348.65L1452.94 348.65" stroke="hsl(228.5, 77.2%, 51.5%)" stroke-width="1.5"></path><path d="M1452.94 348.65L1566.1 350.64" stroke="hsl(228.5, 77.2%, 51.5%)" stroke-width="1.5"></path><path d="M1452.94 348.65L1299.56 405.54" stroke="hsl(228.5, 77.2%, 51.5%)" stroke-width="1.5"></path><path d="M1390.07 530.77L1390.07 530.77" stroke="hsl(228.5, 77.2%, 51.5%)" stroke-width="1.5"></path><path d="M1390.07 530.77L1299.56 405.54" stroke="hsl(228.5, 77.2%, 51.5%)" stroke-width="1.5"></path><path d="M1390.07 530.77L1561.72 522.32" stroke="hsl(228.5, 77.2%, 51.5%)" stroke-width="1.5"></path><path d="M1571.25 -90.32L1571.25 -90.32" stroke="hsl(228.5, 77.2%, 51.5%)" stroke-width="1.5"></path><path d="M1571.25 -90.32L1570.29 108.91" stroke="hsl(228.5, 77.2%, 51.5%)" stroke-width="1.5"></path><path d="M1570.29 108.91L1570.29 108.91" stroke="hsl(228.5, 77.2%, 51.5%)" stroke-width="1.5"></path><path d="M1570.29 108.91L1607.98 201.52" stroke="hsl(228.5, 77.2%, 51.5%)" stroke-width="1.5"></path><path d="M1607.98 201.52L1607.98 201.52" stroke="hsl(228.5, 77.2%, 51.5%)" stroke-width="1.5"></path><path d="M1607.98 201.52L1566.1 350.64" stroke="hsl(228.5, 77.2%, 51.5%)" stroke-width="1.5"></path><path d="M1566.1 350.64L1566.1 350.64" stroke="hsl(228.5, 77.2%, 51.5%)" stroke-width="1.5"></path><path d="M1566.1 350.64L1561.72 522.32" stroke="hsl(228.5, 77.2%, 51.5%)" stroke-width="1.5"></path><path d="M1561.72 522.32L1561.72 522.32" stroke="hsl(228.5, 77.2%, 51.5%)" stroke-width="1.5"></path><path d="M1561.72 522.32L1452.94 348.65" stroke="hsl(228.5, 77.2%, 51.5%)" stroke-width="1.5"></path><circle r="25" cx="-107.05" cy="518.22" fill="url(#SvgjsRadialGradient1003)"></circle><circle r="25" cx="347.66" cy="509.84" fill="url(#SvgjsRadialGradient1003)"></circle><circle r="25" cx="937.94" cy="344.21" fill="url(#SvgjsRadialGradient1003)"></circle><circle r="25" cx="1000.84" cy="544.83" fill="url(#SvgjsRadialGradient1003)"></circle><circle r="25" cx="997.07" cy="662.72" fill="url(#SvgjsRadialGradient1003)"></circle><circle r="25" cx="1123.45" cy="257.57" fill="url(#SvgjsRadialGradient1003)"></circle><circle r="25" cx="1160.57" cy="371.77" fill="url(#SvgjsRadialGradient1003)"></circle><circle r="25" cx="1131.24" cy="655.01" fill="url(#SvgjsRadialGradient1003)"></circle><circle r="25" cx="1300.92" cy="518.48" fill="url(#SvgjsRadialGradient1003)"></circle><circle r="25" cx="1458.44" cy="-68.09" fill="url(#SvgjsRadialGradient1003)"></circle><circle r="25" cx="1428.12" cy="709.16" fill="url(#SvgjsRadialGradient1003)"></circle><circle r="5" cx="-67.62" cy="707.84" fill="#8b9ad9"></circle><circle r="5" cx="57.5" cy="532.35" fill="#8b9ad9"></circle><circle r="5" cx="87.74" cy="711.91" fill="#8b9ad9"></circle><circle r="5" cx="233.15" cy="694.72" fill="#8b9ad9"></circle><circle r="5" cx="381.09" cy="676.5" fill="#8b9ad9"></circle><circle r="5" cx="525.96" cy="495.32" fill="#8b9ad9"></circle><circle r="5" cx="554.07" cy="646.58" fill="#8b9ad9"></circle><circle r="5" cx="659.92" cy="391.32" fill="#8b9ad9"></circle><circle r="5" cx="675.04" cy="558.71" fill="#8b9ad9"></circle><circle r="5" cx="838.29" cy="348.64" fill="#8b9ad9"></circle><circle r="5" cx="796.81" cy="506.63" fill="#8b9ad9"></circle><circle r="5" cx="857.94" cy="699.8" fill="#8b9ad9"></circle><circle r="5" cx="1123.55" cy="530.83" fill="#8b9ad9"></circle><circle r="5" cx="1244.76" cy="-51.86" fill="#8b9ad9"></circle><circle r="5" cx="1308.31" cy="53.08" fill="#8b9ad9"></circle><circle r="5" cx="1269.84" cy="255.79" fill="#8b9ad9"></circle><circle r="5" cx="1299.56" cy="405.54" fill="#8b9ad9"></circle><circle r="5" cx="1289.64" cy="651.99" fill="#8b9ad9"></circle><circle r="5" cx="1404.14" cy="99.45" fill="#8b9ad9"></circle><circle r="5" cx="1450.6" cy="213.87" fill="#8b9ad9"></circle><circle r="5" cx="1452.94" cy="348.65" fill="#8b9ad9"></circle><circle r="5" cx="1390.07" cy="530.77" fill="#8b9ad9"></circle><circle r="5" cx="1571.25" cy="-90.32" fill="#8b9ad9"></circle><circle r="5" cx="1570.29" cy="108.91" fill="#8b9ad9"></circle><circle r="5" cx="1607.98" cy="201.52" fill="#8b9ad9"></circle><circle r="5" cx="1566.1" cy="350.64" fill="#8b9ad9"></circle><circle r="5" cx="1561.72" cy="522.32" fill="#8b9ad9"></circle></g><defs><mask id="SvgjsMask1002"><rect width="1440" height="560" fill="#ffffff"></rect></mask><radialGradient id="SvgjsRadialGradient1003"><stop stop-color="#ffffff" offset="0.1"></stop><stop stop-color="#1735b3" offset="0.2"></stop><stop stop-color="rgba(23, 53, 179, 0)" offset="1"></stop></radialGradient></defs></svg>